<svg width="59" height="38" viewBox="0 0 59 38" fill="none" xmlns="http://www.w3.org/2000/svg">
<path id="Vector" d="M53.8537 5.81598C53.206 5.12125 52.5079 4.47876 51.7655 3.89413L47.6074 8.19152C46.5034 7.42394 45.2874 6.84457 44.0058 6.4755L48.4991 1.83155C47.5755 1.37702 46.6168 1.00324 45.6329 0.714141L40.52 6.00082H34.9034L37.4872 3.32912L40.7049 8.55809e-06H40.6277C39.1477 -0.00144643 37.673 0.18263 36.2359 0.54821L31.3729 5.57024C27.9258 2.00479 23.2501 0.00114877 18.3744 8.55809e-06C14.7396 -0.000174253 11.1864 1.11439 8.16435 3.20269C5.14232 5.291 2.78722 8.2592 1.39701 11.7318C0.00679543 15.2044 -0.356055 19.0253 0.35436 22.7112C1.06478 26.397 2.81653 29.7822 5.38801 32.4384C6.04804 33.1243 6.75842 33.7563 7.51279 34.3288L11.6872 30.0125C12.9111 30.808 14.2598 31.3766 15.6727 31.6928L11.0819 36.4396C12.0374 36.8682 13.0269 37.2104 14.0395 37.4625L16.534 34.8833L19.323 31.9994H24.5801L22.1425 34.5199L18.7928 37.9897C20.3651 37.9563 21.9266 37.7127 23.4385 37.2651L27.8729 32.6799C28.3875 33.1913 28.9301 33.6717 29.498 34.1187C33.1819 37.0182 37.7887 38.3728 42.397 37.9115C47.0053 37.4503 51.2752 35.2071 54.3528 31.6307C57.4305 28.0543 59.0889 23.4084 58.9963 18.6222C58.9038 13.836 57.0671 9.26231 53.8537 5.81598ZM7.43966 30.317C5.99472 28.8333 4.84725 27.0692 4.06306 25.1259C3.27886 23.1827 2.87338 21.0985 2.86985 18.9928C2.86632 16.8872 3.26482 14.8016 4.04249 12.8555C4.82016 10.9094 5.96171 9.14126 7.40168 7.65235C8.84164 6.16344 10.5517 4.98309 12.4338 4.17898C14.3159 3.37487 16.3329 2.96283 18.3693 2.96648C20.4058 2.97013 22.4214 3.3894 24.3008 4.20024C26.1802 5.01109 27.8863 6.19757 29.3212 7.69163C29.3802 7.75254 29.4411 7.81555 29.498 7.87856C30.0934 8.5106 30.637 9.19278 31.123 9.91804C31.1962 10.0259 31.2673 10.1351 31.3363 10.2457C31.9146 11.1579 32.4006 12.1292 32.7867 13.1442C32.8659 13.3543 32.9411 13.5643 33.0102 13.7744C33.5693 15.4553 33.8549 17.2205 33.8552 18.998C33.8541 19.9719 34.0504 20.9353 34.4314 21.8259C34.8124 22.7166 35.3697 23.5148 36.0673 24.1692C36.0743 24.1774 36.0817 24.1851 36.0897 24.1923C37.0628 25.1027 38.2708 25.7012 39.5667 25.9152C40.8626 26.1292 42.1908 25.9493 43.3897 25.3975C44.5886 24.8457 45.6068 23.9457 46.3204 22.8068C47.0339 21.668 47.4123 20.3394 47.4093 18.9824C47.4064 17.6255 47.0224 16.2986 46.3039 15.1631C45.5854 14.0275 44.5634 13.1322 43.3621 12.5859C42.1608 12.0396 40.8319 11.8659 39.5369 12.0858C38.2419 12.3058 37.0365 12.9099 36.0673 13.8248C35.8474 13.018 35.5759 12.2272 35.2548 11.4576C35.1735 11.2602 35.0882 11.0649 34.9988 10.8716C34.7045 10.2278 34.3742 9.60222 34.0096 8.99807H40.6277C40.9324 8.99807 41.2371 9.01277 41.5316 9.04218C43.1407 9.19998 44.6858 9.77243 46.0257 10.7072C47.3655 11.6419 48.4573 12.9091 49.2012 14.3928C49.9451 15.8765 50.3174 17.5294 50.2839 19.2003C50.2504 20.8711 49.8123 22.5067 49.0096 23.9573C48.207 25.4079 47.0654 26.6272 45.6892 27.5038C44.3131 28.3803 42.7464 28.8861 41.1323 28.9749C39.5183 29.0637 37.9085 28.7326 36.4502 28.0119C34.9919 27.2913 33.7317 26.2041 32.7847 24.8497C32.6039 24.5919 32.4357 24.3248 32.2809 24.0495C31.565 22.7918 31.1273 21.3859 30.9991 19.9327C30.9707 19.626 30.9565 19.3026 30.9565 18.998C30.9558 16.8853 30.4587 14.8044 29.5081 12.9342C29.3578 12.6422 29.1994 12.3566 29.0287 12.0793C28.6316 11.4269 28.1795 10.8119 27.6779 10.2415C27.5479 10.0945 27.4158 9.95165 27.2716 9.82142C26.1057 8.61001 24.7199 7.64855 23.1938 6.99219C21.6677 6.33584 20.0313 5.99751 18.3784 5.99662C15.8912 5.99644 13.4598 6.75911 11.3919 8.18814C9.32394 9.61716 7.71244 11.6483 6.76124 14.0246C5.81005 16.4009 5.56192 19.0155 6.04825 21.5377C6.53458 24.0598 7.73351 26.3761 9.49335 28.1935L7.43966 30.317ZM36.7519 18.998C36.7519 18.472 36.8522 17.9512 37.047 17.4654C37.2419 16.9795 37.5275 16.5381 37.8874 16.1665C38.2474 15.7949 38.6747 15.5003 39.1449 15.2995C39.6151 15.0988 40.119 14.996 40.6277 14.9968C40.7573 14.9964 40.8868 15.0034 41.0157 15.0178C41.7437 15.0955 42.4354 15.3851 43.0107 15.8529C43.586 16.3208 44.0211 16.9477 44.2656 17.661C44.5102 18.3743 44.5541 19.1446 44.3922 19.8826C44.2304 20.6207 43.8695 21.2961 43.3513 21.8306C42.8332 22.365 42.1791 22.7366 41.4649 22.9022C40.7508 23.0677 40.0059 23.0205 39.3167 22.766C38.6274 22.5114 38.0221 22.06 37.571 21.464C37.1199 20.8681 36.8415 20.1521 36.7681 19.3992C36.7556 19.2659 36.7502 19.132 36.7519 18.998ZM40.6277 34.9967C36.6423 34.9968 32.8106 33.407 29.9306 30.5586C29.7844 30.4185 29.6422 30.2715 29.5041 30.1175C28.9944 29.5735 28.5233 28.9923 28.0943 28.3784C27.9481 28.1683 27.8079 27.9583 27.6759 27.7482C27.0999 26.8394 26.6146 25.8725 26.2275 24.8623L26.1625 24.9295C26.1828 24.9022 26.2031 24.8749 26.2214 24.8455C25.5181 22.9802 25.1565 20.9959 25.155 18.9938C25.1561 18.0754 24.9817 17.1658 24.6418 16.3173C24.3019 15.4688 23.8032 14.6981 23.1744 14.0495C23.1013 13.9718 23.0221 13.8941 22.9428 13.8206C21.9732 12.9067 20.7676 12.3039 19.4727 12.0855C18.1778 11.8672 16.8494 12.0427 15.6492 12.5907C14.449 13.1387 13.4287 14.0355 12.7124 15.1722C11.9962 16.3088 11.6148 17.6362 11.6148 18.9928C11.6148 20.3494 11.9962 21.6768 12.7124 22.8134C13.4287 23.95 14.449 24.8469 15.6492 25.3949C16.8494 25.9429 18.1778 26.1184 19.4727 25.9C20.7676 25.6817 21.9732 25.0789 22.9428 24.165C23.0221 24.0936 23.0972 24.0179 23.1724 23.9402L22.9449 24.1755C23.2222 25.1847 23.5802 26.1683 24.0154 27.116C24.052 27.0908 24.0865 27.0635 24.121 27.0362L24.0255 27.1349C24.3173 27.772 24.6442 28.3913 25.0046 28.9896H18.2829C16.763 28.9749 15.2678 28.59 13.9187 27.8662C12.5695 27.1423 11.4043 26.0998 10.5177 24.8232C9.63107 23.5466 9.04792 22.0719 8.81556 20.5187C8.5832 18.9656 8.70817 17.3776 9.18034 15.8837C9.6525 14.3898 10.4586 13.032 11.5332 11.9204C12.6077 10.8089 13.9206 9.97487 15.3652 9.48606C16.8098 8.99724 18.3455 8.86739 19.8477 9.10703C21.3499 9.34667 22.7764 9.94905 24.0113 10.8653C24.4463 11.1828 24.8541 11.5384 25.2301 11.9281C25.8939 12.6253 26.4564 13.4184 26.8999 14.2826C27.6383 15.7041 28.0309 17.29 28.0435 18.9035C28.0435 18.9392 28.0435 18.9749 28.0435 19.0106C28.0425 20.1933 28.1977 21.3706 28.5046 22.5099C28.8649 23.8344 29.425 25.0919 30.1643 26.236C30.5122 26.774 30.8985 27.2845 31.3201 27.7629C31.5286 27.9996 31.7453 28.2278 31.9701 28.4477C32.455 28.9219 32.9753 29.356 33.5261 29.7457C36.0882 31.5768 39.2164 32.3592 42.3045 31.9413C45.3927 31.5233 48.2208 29.9349 50.2408 27.4837C52.2608 25.0326 53.3288 21.8933 53.2379 18.6743C53.1469 15.4553 51.9034 12.3859 49.7484 10.0609L51.8 7.93738C53.8952 10.2015 55.3012 13.0519 55.8436 16.1349C56.3859 19.2179 56.0407 22.3977 54.8508 25.2797C53.6609 28.1616 51.6787 30.6188 49.1502 32.3462C46.6217 34.0736 43.6582 34.9953 40.6277 34.9967ZM22.2441 18.998C22.2441 19.0295 22.2441 19.0589 22.2441 19.0904C22.2228 20.1195 21.8178 21.1002 21.1138 21.8278C20.4097 22.5554 19.461 22.9736 18.4658 22.9951H18.3744C17.611 22.9951 16.8648 22.761 16.2301 22.3225C15.5954 21.884 15.1007 21.2607 14.8086 20.5315C14.5165 19.8023 14.4401 18.9999 14.589 18.2258C14.7379 17.4516 15.1055 16.7406 15.6453 16.1824C16.185 15.6243 16.8727 15.2442 17.6214 15.0903C18.3701 14.9363 19.1461 15.0153 19.8513 15.3174C20.5566 15.6194 21.1594 16.1309 21.5835 16.7872C22.0075 17.4435 22.2339 18.215 22.2339 19.0043L22.2441 18.998Z" fill="url(#paint0_linear_3156_7656)"/>
<defs>
<linearGradient id="paint0_linear_3156_7656" x1="7.13293" y1="35.4378" x2="52.8557" y2="4.00001" gradientUnits="userSpaceOnUse">
<stop stop-color="#FC4F91"/>
<stop offset="0.49" stop-color="#7763F6"/>
<stop offset="1" stop-color="#0AD2DA"/>
</linearGradient>
</defs>
</svg>